# xmcd
#
# Track frame offsets: 
#        150
#        19592
#        41175
#        57835
#        71497
#        85970
#        101640
#        117322
#        136090
#        149780
#        168180
#
# Disc length: 2296 seconds
#
# Revision: 0
# Processed by: cddbd v1.5PL3 Copyright (c) Steve Scherf et al.
# Submitted via: ExactAudioCopy v0.95a4
#
DISCID=9908f60b
DTITLE=Abuelo Jones - Travellers
DYEAR=1993
DGENRE=Country
TTITLE0=Nocturno Para Banjo Y Voz
TTITLE1=El Club De Los Ricos
TTITLE2=En Tu Peine De Carey
TTITLE3=I've Just Seen A Face
TTITLE4=Mi Hermano Era Una Sombra
TTITLE5=Un Palo Al Agua
TTITLE6=Manifestodromo
TTITLE7=Carita Bonita
TTITLE8=Virgenes Y Rosas (Morning Sky
TTITLE9=Travellers
TTITLE10=Rag-3
EXTD=
EXTT0=
EXTT1=
EXTT2=
EXTT3=
EXTT4=
EXTT5=
EXTT6=
EXTT7=
EXTT8=
EXTT9=
EXTT10=
PLAYORDER=
